<?xml version="1.0" encoding="utf-8"?>
<!-- Generator: Adobe Illustrator 21.0.2, SVG Export Plug-In . SVG Version: 6.00 Build 0)  -->
<svg version="1.1" id="Layer_1" xmlns="http://www.w3.org/2000/svg" xmlns:xlink="http://www.w3.org/1999/xlink" x="0px" y="0px"
	 viewBox="0 0 234 234" style="enable-background:new 0 0 234 234;" xml:space="preserve">
<style type="text/css">
	.st0{fill:url(#SVGID_1_);}
	.st1{opacity:0.93;fill:#FFFFFF;enable-background:new    ;}
	.st2{opacity:0.63;fill:#FFFFFF;enable-background:new    ;}
	.st3{opacity:0.73;fill:#FFFFFF;enable-background:new    ;}
	.st4{opacity:0.7;fill:#FFFFFF;enable-background:new    ;}
	.st5{opacity:0.42;fill:#FFFFFF;enable-background:new    ;}
	.st6{opacity:0.58;fill:#FFFFFF;enable-background:new    ;}
	.st7{opacity:0.15;fill:#FFFFFF;enable-background:new    ;}
	.st8{opacity:0.2;fill:#FFFFFF;enable-background:new    ;}
	.st9{opacity:0.44;fill:#FFFFFF;enable-background:new    ;}
	.st10{opacity:0.32;fill:#FFFFFF;enable-background:new    ;}
	.st11{opacity:6.000000e-02;fill:#FFFFFF;enable-background:new    ;}
</style>
<title>Artboard 1</title>
<linearGradient id="SVGID_1_" gradientUnits="userSpaceOnUse" x1="111.9463" y1="232.2451" x2="49.1206" y2="128.7372" gradientTransform="matrix(0.9812 0.1929 0.1929 -0.9812 11.5555 270.0672)">
	<stop  offset="0" style="stop-color:#FF0EF8"/>
	<stop  offset="0.11" style="stop-color:#F021E6"/>
	<stop  offset="0.34" style="stop-color:#C853B9"/>
	<stop  offset="0.66" style="stop-color:#88A36F"/>
	<stop  offset="1" style="stop-color:#3FFF1B"/>
</linearGradient>
<polygon class="st0" points="189.4,75.9 122.7,0 72,40.6 44.6,120.2 110.6,234 178.9,176.2 "/>
<g>
	<polygon class="st1" points="79.5,96.9 44.6,120.2 72,40.6 	"/>
	<polygon class="st2" points="110.6,234 44.6,120.2 90.5,163.6 	"/>
	<polygon class="st3" points="121.4,144.7 90.5,163.6 44.6,120.2 79.5,96.9 	"/>
	<polygon class="st4" points="122.7,0 79.5,96.9 72,40.6 	"/>
	<polygon class="st5" points="169.6,117.9 135.1,109.5 121.4,144.7 150.4,168.3 	"/>
	<polygon class="st6" points="110.6,234 150.4,168.3 121.4,144.7 90.5,163.6 	"/>
	<polygon class="st7" points="178.9,176.2 150.4,168.3 110.6,234 	"/>
	<polygon class="st8" points="169.6,117.9 178.9,176.2 150.4,168.3 	"/>
	<polygon class="st9" points="122.7,0 135.1,109.5 79.5,96.9 	"/>
	<polygon class="st6" points="121.4,144.7 79.5,96.9 135.1,109.5 	"/>
	<polygon class="st10" points="169.6,117.9 189.4,75.9 122.7,0 135.1,109.5 	"/>
	<polygon class="st11" points="178.9,176.2 189.4,75.9 169.6,117.9 	"/>
</g>
</svg>
