<?xml version="1.0" encoding="utf-8"?>
<!-- Generator: Adobe Illustrator 21.0.2, SVG Export Plug-In . SVG Version: 6.00 Build 0)  -->
<svg version="1.1" id="Layer_1" xmlns="http://www.w3.org/2000/svg" xmlns:xlink="http://www.w3.org/1999/xlink" x="0px" y="0px"
	 viewBox="0 0 234 234" style="enable-background:new 0 0 234 234;" xml:space="preserve">
<style type="text/css">
	.st0{fill:url(#SVGID_1_);}
	.st1{opacity:0.39;fill:#FFFFFF;enable-background:new    ;}
	.st2{opacity:0.1;fill:#FFFFFF;enable-background:new    ;}
	.st3{opacity:0.14;fill:#FFFFFF;enable-background:new    ;}
	.st4{opacity:0.7;fill:#FFFFFF;enable-background:new    ;}
	.st5{opacity:0.53;fill:#FFFFFF;enable-background:new    ;}
	.st6{opacity:0.8;fill:#FFFFFF;enable-background:new    ;}
	.st7{opacity:0.45;fill:#FFFFFF;enable-background:new    ;}
</style>
<title>Artboard 1</title>
<linearGradient id="SVGID_1_" gradientUnits="userSpaceOnUse" x1="4.7652" y1="123.1287" x2="50.1858" y2="-19.3263" gradientTransform="matrix(0.8677 -0.4971 -0.4971 -0.8677 133.0571 179.9718)">
	<stop  offset="0" style="stop-color:#AA147F"/>
	<stop  offset="0.16" style="stop-color:#B42777"/>
	<stop  offset="0.49" style="stop-color:#CF5963"/>
	<stop  offset="0.95" style="stop-color:#FAA843"/>
	<stop  offset="1" style="stop-color:#FFB13F"/>
</linearGradient>
<polygon class="st0" points="139.3,0 79.6,46.3 53.2,145.4 88.6,211.2 154.8,234 180.8,177.2 169.5,46.4 "/>
<g>
	<polygon class="st1" points="115.3,160.9 88.6,211.2 154.8,234 	"/>
	<polygon class="st2" points="180.8,177.2 115.3,160.9 154.8,234 	"/>
	<polygon class="st3" points="169.5,46.4 115.3,160.9 180.8,177.2 	"/>
	<polygon class="st4" points="88.6,211.2 53.2,145.4 115.3,160.9 	"/>
	<polygon class="st5" points="169.5,46.4 79.6,46.3 115.3,160.9 	"/>
	<polygon class="st6" points="53.2,145.4 79.6,46.3 115.3,160.9 	"/>
	<polygon class="st7" points="169.5,46.4 139.3,0 79.6,46.3 	"/>
</g>
</svg>
