<?xml version="1.0" encoding="utf-8"?>
<!-- Generator: Adobe Illustrator 18.1.1, SVG Export Plug-In . SVG Version: 6.00 Build 0)  -->
<svg version="1.1" id="Layer_1" xmlns="http://www.w3.org/2000/svg" xmlns:xlink="http://www.w3.org/1999/xlink" x="0px" y="0px"
	 viewBox="396.1 0 431.9 792" enable-background="new 396.1 0 431.9 792" xml:space="preserve">
<title>Artboard 1</title>
<linearGradient id="SVGID_1_" gradientUnits="userSpaceOnUse" x1="4.7387" y1="668.8798" x2="50.1592" y2="811.3348" gradientTransform="matrix(2.9368 -1.6825 1.6825 2.9368 -666.1868 -1716.8346)">
	<stop  offset="0" style="stop-color:#AA147F"/>
	<stop  offset="0.16" style="stop-color:#B42777"/>
	<stop  offset="0.49" style="stop-color:#CF5963"/>
	<stop  offset="0.95" style="stop-color:#FAA843"/>
	<stop  offset="1" style="stop-color:#FFB13F"/>
</linearGradient>
<polygon fill="url(#SVGID_1_)" points="687.5,0 485.4,156.7 396.1,492.1 515.9,714.8 739.9,792 827.9,599.8 789.7,157 "/>
<g>
	<polygon opacity="0.39" fill="#FFFFFF" enable-background="new    " points="606.2,544.6 515.9,714.8 739.9,792 	"/>
	<polygon opacity="0.1" fill="#FFFFFF" enable-background="new    " points="827.9,599.8 606.2,544.6 739.9,792 	"/>
	<polygon opacity="0.14" fill="#FFFFFF" enable-background="new    " points="789.7,157 606.2,544.6 827.9,599.8 	"/>
	<polygon opacity="0.7" fill="#FFFFFF" enable-background="new    " points="515.9,714.8 396.1,492.1 606.2,544.6 	"/>
	<polygon opacity="0.53" fill="#FFFFFF" enable-background="new    " points="789.7,157 485.4,156.7 606.2,544.6 	"/>
	<polygon opacity="0.8" fill="#FFFFFF" enable-background="new    " points="396.1,492.1 485.4,156.7 606.2,544.6 	"/>
	<polygon opacity="0.45" fill="#FFFFFF" enable-background="new    " points="789.7,157 687.5,0 485.4,156.7 	"/>
</g>
</svg>
